<svg xmlns="http://www.w3.org/2000/svg" xmlns:xlink="http://www.w3.org/1999/xlink" version="1.1" width="247.92pt" height="103.92pt" viewBox="0 0 247.92 103.92">
<defs>
<clipPath id="clip_0">
<path transform="matrix(.24,0,0,.24,0,0)" d="M0 0H1031.9824V431.98243H0Z" fill-rule="evenodd"/>
</clipPath>
<clipPath id="clip_1">
<path transform="matrix(.24,0,0,.24,0,0)" d="M3.125 0H1028.125V431.25H3.125Z" fill-rule="evenodd"/>
</clipPath>
<path id="font_2_70" d="M.26611329 .5390625C.32503257 .5390625 .37296549 .524704 .4099121 .49598695 .44685874 .4672699 .46907554 .41782633 .4765625 .34765626H.39111329C.38590495 .3798828 .37402345 .4066569 .35546876 .42797853 .33691407 .44930015 .3071289 .45996095 .26611329 .45996095 .2101237 .45996095 .17008464 .4326172 .1459961 .3779297 .1303711 .3424479 .122558597 .29866538 .122558597 .24658203 .122558597 .19417317 .1336263 .15006511 .15576172 .11425781 .17789714 .07845052 .21272786 .060546876 .2602539 .060546876 .29671226 .060546876 .3256022 .0716095 .34692384 .09373474 .36824546 .115859989 .38297526 .1461385 .39111329 .18457031H.4765625C.46679688 .115234378 .4423828 .06453451 .4033203 .032470704 .3642578 .00040690104 .31429038-.015625 .25341798-.015625 .1850586-.015625 .13053386 .009424846 .08984375 .059524537 .049153646 .10962423 .028808594 .1722107 .028808594 .24728394 .028808594 .3393148 .05110677 .4109497 .095703128 .46218873 .14029949 .5134379 .19710286 .5390625 .26611329 .5390625M.2524414 .5361328V.5361328Z"/>
<path id="font_2_88" d="M.15234375 .5234375V.17590332C.15234375 .1491801 .15657552 .12734477 .16503906 .11039734 .18066406 .07911682 .20979817 .06347656 .2524414 .06347656 .3136393 .06347656 .355306 .09085083 .3774414 .14559937 .3894857 .17492676 .3955078 .21516927 .3955078 .2663269V.5234375H.48339845V0H.40039063L.4013672 .0771637C.38997398 .057195028 .3758138 .040339155 .35888673 .02659607 .32535807-.00090026858 .28466798-.0146484379 .2368164-.0146484379 .16227214-.0146484379 .11149088 .010299683 .084472659 .060195924 .06982422 .08693949 .0625 .12265015 .0625 .16732788V.5234375H.15234375M.27294923 .5361328V.5361328Z"/>
<path id="font_2_86" d="M.11669922 .1640625C.11930338 .13463338 .12662761 .11207072 .13867188 .09637451 .1608073 .06793213 .19921875 .053710939 .25390626 .053710939 .28645835 .053710939 .31510417 .060806276 .33984376 .07499695 .36458335 .08919779 .37695313 .11115011 .37695313 .14085388 .37695313 .16337586 .36702476 .18051148 .34716798 .19226074 .33447267 .19944255 .30940757 .20775859 .27197267 .21720886L.20214844 .2348175C.15755208 .24590557 .12467448 .25829569 .103515628 .27198792 .06575521 .29579164 .046875 .32873027 .046875 .37080384 .046875 .42036439 .064697269 .46046958 .1003418 .49111939 .13598633 .52177938 .18391927 .5371094 .24414063 .5371094 .32291667 .5371094 .37972007 .5139974 .41455079 .46777345 .4363607 .43847657 .4469401 .40690104 .44628907 .37304688H.36328126C.36165367 .39269004 .35465495 .41055808 .34228517 .426651 .32210288 .44950868 .28710938 .4609375 .23730469 .4609375 .20410156 .4609375 .17895508 .45461528 .16186524 .44197084 .14477539 .42933656 .13623047 .41264854 .13623047 .39190675 .13623047 .36922203 .14746094 .35107423 .16992188 .33746339 .1829427 .32936607 .20214844 .32221986 .22753906 .31602479L.28564454 .3018341C.34879557 .28650413 .39111329 .27166749 .41259767 .25732423 .44677735 .23482259 .4638672 .19944255 .4638672 .15118408 .4638672 .10455322 .44620768 .06428019 .41088868 .03036499 .37556968-.0035502117 .32177735-.020507813 .24951172-.020507813 .17171224-.020507813 .116617839-.002802531 .084228519 .032608034 .05183919 .06801859 .034505208 .111836757 .032226564 .1640625H.11669922M.24658203 .5361328V.5361328Z"/>
<path id="font_2_87" d="M.08203125 .6689453H.17089844V.5234375H.25439454V.45117188H.17089844V.11029053C.17089844 .09209188 .17708333 .07990519 .18945313 .07373047 .19628906 .07014974 .2076823 .068359378 .22363281 .068359378 .22786458 .068359378 .23242188 .06846619 .23730469 .06867981 .2421875 .0689036 .24788411 .06944784 .25439454 .0703125V0C.24430339-.0031026204 .23380535-.005340576 .22290039-.006713867 .21199544-.008097331 .20019531-.0087890629 .1875-.0087890629 .14648438-.0087890629 .118652347 .0017191569 .104003909 .022735596 .08935547 .043752035 .08203125 .07104492 .08203125 .10461426V.45117188H.011230469V.5234375H.08203125V.6689453Z"/>
<path id="font_2_82" d="M.27197267 .057617189C.33024089 .057617189 .37019859 .079696658 .3918457 .12385559 .41349284 .16801453 .4243164 .21714783 .4243164 .2712555 .4243164 .32014466 .4165039 .35990397 .4008789 .39053346 .3761393 .43877159 .3334961 .46289063 .27294923 .46289063 .21923828 .46289063 .18017578 .4423574 .15576172 .4012909 .13134766 .3602244 .119140628 .3106842 .119140628 .2526703 .119140628 .19694519 .13134766 .15050252 .15576172 .113342288 .18017578 .07619222 .21891277 .057617189 .27197267 .057617189M.27539063 .5390625C.34277345 .5390625 .3997396 .51658126 .44628907 .47161866 .49283854 .4266561 .5161133 .3605194 .5161133 .27320863 .5161133 .18881734 .49560548 .11908976 .45458985 .06402588 .41357423 .008972168 .3499349-.018554688 .26367188-.018554688 .19173177-.018554688 .13460286 .00579834 .092285159 .054504396 .04996745 .10321045 .028808594 .1686147 .028808594 .25071717 .028808594 .33868919 .05110677 .40873719 .095703128 .4608612 .14029949 .5129954 .20019531 .5390625 .27539063 .5390625M.27246095 .5361328V.5361328Z"/>
<path id="font_2_80" d="M.064453128 .5234375H.15136719V.44921876C.17220052 .4749349 .19108074 .49365235 .20800781 .5053711 .23697917 .52522787 .26985679 .53515627 .30664063 .53515627 .34830729 .53515627 .38183595 .52490237 .40722657 .50439456 .42154948 .49267579 .4345703 .4754232 .44628907 .45263673 .4658203 .4806315 .48876954 .5013835 .5151367 .5148926 .5415039 .5284017 .5711263 .53515627 .6040039 .53515627 .6743164 .53515627 .72216799 .5097402 .7475586 .45890809 .76123049 .43154399 .7680664 .3947296 .7680664 .34846498V0H.6767578V.36367799C.6767578 .39853923 .6680501 .42248536 .65063479 .43551637 .6332194 .44855754 .6119792 .45507813 .58691409 .45507813 .5524089 .45507813 .5227051 .44350688 .49780274 .42036439 .4729004 .39723207 .46044923 .35861717 .46044923 .30451966V0H.37109376V.3416748C.37109376 .37719728 .36686198 .4031016 .35839845 .41938783 .3450521 .4438324 .32014976 .4560547 .2836914 .4560547 .25048829 .4560547 .22029622 .44318138 .19311524 .4174347 .16593425 .3916982 .15234375 .34510295 .15234375 .27764894V0H.064453128V.5234375Z"/>
<path id="font_2_72" d="M.28222657 .53515627C.31933595 .53515627 .355306 .52644857 .39013673 .5090332 .42496745 .49161784 .4514974 .4690806 .46972657 .4414215 .4873047 .41505433 .49902345 .3842977 .5048828 .3491516 .5100911 .32506309 .5126953 .28647868 .5126953 .23339844H.12939453C.13102214 .18033855 .14355469 .13777669 .16699219 .10571289 .19042969 .073649089 .22672527 .057617189 .2758789 .057617189 .32177735 .057617189 .35839845 .07261658 .3857422 .10261536 .4013672 .12003072 .4124349 .14018758 .4189453 .16308594H.5053711C.50309249 .14398194 .49552409 .122690837 .48266603 .09921265 .46980796 .07574463 .45540367 .05656433 .43945313 .041671754 .4127604 .01576233 .37972007-.0017242432 .34033204-.010787964 .3191732-.01596578 .2952474-.018554688 .2685547-.018554688 .20345052-.018554688 .14827474 .0051472985 .103027347 .05255127 .05777995 .09995524 .03515625 .16634114 .03515625 .25170899 .03515625 .33576457 .057942708 .40401713 .103515628 .45646668 .14908855 .5089264 .20865886 .53515627 .28222657 .53515627M.42236329 .30371095C.41878257 .34191896 .41048179 .37245179 .39746095 .39530946 .3733724 .4377594 .33317057 .45898438 .27685548 .45898438 .23649089 .45898438 .20263672 .44437156 .17529297 .41514588 .14794922 .3859202 .13346355 .34877525 .13183594 .30371095H.42236329M.27392579 .5361328V.5361328Z"/>
<path id="font_2_85" d="M.06689453 .5234375H.15039063V.4326172C.15722656 .4502767 .17399089 .4717814 .2006836 .49713136 .2273763 .52248129 .25813804 .53515627 .29296876 .53515627 .29459635 .53515627 .29736329 .5349579 .30126954 .53456118 .30517579 .5341746 .31184898 .5333964 .32128907 .53222659V.43945313C.31608073 .44062297 .3112793 .44140116 .30688478 .44178773 .30249024 .44218446 .2976888 .4423828 .29248048 .4423828 .24820964 .4423828 .2141927 .4280599 .19042969 .39941407 .16666667 .37076823 .15478516 .33789063 .15478516 .30078126V0H.06689453V.5234375Z"/>
<path id="font_2_66" d="M0-.125V-.07519531H.55615237V-.125H0Z"/>
<path id="font_2_81" d="M.064453128 .5234375H.14794922V.44921876C.1726888 .47981773 .19889324 .50179037 .2265625 .5151367 .25423179 .5284831 .2849935 .53515627 .31884767 .53515627 .3930664 .53515627 .44319663 .5092519 .46923829 .45744325 .4835612 .42910258 .49072267 .38853965 .49072267 .3357544V0H.4013672V.3299408C.4013672 .36188255 .39664714 .38762919 .38720704 .4071808 .37158204 .4397634 .34326173 .4560547 .3022461 .4560547 .28141276 .4560547 .2643229 .4539388 .25097657 .44970704 .22688802 .4425354 .20572917 .42819724 .1875 .4066925 .17285156 .38941957 .16333008 .37157694 .15893555 .35316468 .15454102 .3347524 .15234375 .30844117 .15234375 .27423097V0H.064453128V.5234375M.2709961 .5361328V.5361328Z"/>
<path id="font_2_68" d="M.13183594 .13891602C.13183594 .11344401 .14111328 .09336344 .15966797 .07867432 .17822266 .06398519 .20019531 .056640626 .22558594 .056640626 .2565104 .056640626 .28645835 .06386312 .3154297 .078308109 .3642578 .102274578 .38867188 .14127605 .38867188 .1953125V.26611329C.3779297 .25913493 .36409507 .25332133 .34716798 .24867249 .33024089 .24402364 .3136393 .24075318 .29736329 .23886109L.24414063 .23222351C.21223958 .22812398 .1883138 .22150167 .17236328 .21235657 .14534505 .1970164 .13183594 .17253621 .13183594 .13891602M.34472657 .31689454C.36490885 .3194987 .37841798 .32796226 .3852539 .34228517 .38916017 .35012818 .39111329 .36140443 .39111329 .3761139 .39111329 .40618388 .38045249 .42799888 .35913087 .44155885 .33780924 .455129 .30729167 .46191407 .26757813 .46191407 .22167969 .46191407 .18912761 .44948326 .16992188 .42462159 .15917969 .4108785 .15218099 .39043174 .14892578 .36328126H.06689453C.06852213 .42791749 .08943685 .47288514 .12963867 .4981842 .1698405 .5234833 .21647136 .5361328 .26953126 .5361328 .3310547 .5361328 .38102214 .52441409 .4194336 .50097659 .45751954 .47753907 .4765625 .4410502 .4765625 .39151V.08985901C.4765625 .08073425 .47843424 .073404949 .48217774 .067871097 .48592124 .06233724 .4938151 .059570314 .5058594 .059570314 .5097656 .059570314 .51416018 .059814454 .51904299 .060302736 .5239258 .060791017 .5291341 .061523439 .53466799 .0625V-.0029296876C.5209961-.0068359377 .5105794-.009277344 .50341799-.010253906 .4962565-.011230469 .48649089-.01171875 .4741211-.01171875 .44384767-.01171875 .421875-.0009104411 .40820313 .020706177 .40104167 .032170614 .3959961 .048380536 .3930664 .06933594 .37516276 .045633954 .34944663 .025060019 .31591798 .0076141359 .2823893-.009831746 .2454427-.018554688 .20507813-.018554688 .15657552-.018554688 .11694336-.0037790936 .08618164 .025772095 .055419923 .055323285 .040039064 .092300418 .040039064 .13670349 .040039064 .18535869 .05517578 .22307332 .08544922 .24984741 .115722659 .2766215 .1554362 .29311119 .20458985 .2993164L.34472657 .31689454M.27197267 .5361328V.5361328Z"/>
<path id="font_2_83" d="M.28515626 .057617189C.32617188 .057617189 .36027018 .074915569 .38745118 .10951233 .41463218 .14410909 .42822267 .19583638 .42822267 .2646942 .42822267 .30666606 .42220054 .34273277 .41015626 .3728943 .38736979 .43093873 .34570313 .45996095 .28515626 .45996095 .22428386 .45996095 .18261719 .42930094 .16015625 .36798097 .14811199 .33519493 .14208985 .29354859 .14208985 .24304199 .14208985 .2023824 .14811199 .16779073 .16015625 .13926697 .1829427 .08483378 .22460938 .057617189 .28515626 .057617189M.057617189 .5205078H.1430664V.45257569C.16064453 .47608439 .17985027 .49427796 .2006836 .5071564 .23030599 .526474 .26513673 .5361328 .30517579 .5361328 .36442057 .5361328 .41471354 .5133667 .4560547 .46783448 .49739585 .42230226 .5180664 .3572693 .5180664 .2727356 .5180664 .1585083 .48828126 .07691447 .42871095 .027954102 .39095054-.0030517579 .34700523-.018554688 .296875-.018554688 .25748698-.018554688 .22444661-.009984334 .1977539 .007156372 .1821289 .016860962 .16471355 .033518476 .14550781 .057128908V-.20898438H.057617189V.5205078Z"/>
<path id="font_2_75" d="M.064453128 .71875H.15234375V.45214845C.17317708 .4786682 .19189453 .4973297 .2084961 .50813296 .2368164 .5267995 .2721354 .5361328 .31445313 .5361328 .39029948 .5361328 .44173179 .50957748 .46875 .45646668 .48339845 .42747499 .49072267 .38723756 .49072267 .3357544V0H.40039063V.32958985C.40039063 .3680013 .3955078 .39615885 .3857422 .4140625 .36979167 .44270835 .33984376 .45703126 .29589845 .45703126 .2594401 .45703126 .22639974 .4444987 .19677735 .4194336 .16715496 .3943685 .15234375 .34700523 .15234375 .27734376V0H.064453128V.71875Z"/>
<path id="font_2_73" d="M.08642578 .6021576C.08772787 .638443 .09407552 .66500857 .10546875 .68185427 .12597656 .7116597 .16552735 .7265625 .2241211 .7265625 .22965496 .7265625 .23535156 .7263997 .24121094 .7260742 .24707031 .7257487 .2537435 .72526046 .26123048 .7246094V.64453127C.25211589 .6449687 .2455241 .6452382 .24145508 .64533999 .23738607 .64545187 .2335612 .6455078 .22998047 .6455078 .20328777 .6455078 .18733724 .6386719 .1821289 .625 .17692058 .6113281 .1743164 .5764974 .1743164 .5205078H.26123048V.45117188H.17333985V0H.08642578V.45117188H.013671875V.5205078H.08642578V.6021576Z"/>
<path id="font_2_79" d="M.06689453 .71777346H.15478516V0H.06689453V.71777346Z"/>
<path id="font_2_90" d="M.10498047 .5234375 .2055664 .110946658 .3076172 .5234375H.40625L.50878909 .11338806 .61572268 .5234375H.7036133L.5517578 0H.46044923L.3540039 .40516664 .25097657 0H.15966797L.0087890629 .5234375H.10498047Z"/>
<path id="font_2_71" d="M.12011719 .2553711C.12011719 .19923909 .1319987 .15224712 .15576172 .11439514 .17952474 .076543178 .21761067 .057617189 .27001954 .057617189 .31070964 .057617189 .3441569 .075154628 .37036134 .11022949 .39656578 .14531453 .40966798 .19565328 .40966798 .26124574 .40966798 .32748924 .39615885 .37651573 .36914063 .4083252 .3421224 .44014488 .3087565 .4560547 .26904298 .4560547 .22477214 .4560547 .18888347 .4390869 .16137696 .40515138 .13387044 .37121583 .12011719 .32128907 .12011719 .2553711M.2524414 .53222659C.29248048 .53222659 .32600913 .52381899 .35302735 .5070038 .36865235 .4972992 .38639323 .48031617 .40625 .4560547V.71875H.49072267V0H.4116211V.07229614C.39111329 .04023234 .36686198 .017074585 .3388672 .002822876 .3108724-.011428833 .2788086-.018554688 .24267578-.018554688 .18440755-.018554688 .13395183 .0059407555 .091308597 .05493164 .048665365 .10392252 .02734375 .16910808 .02734375 .25048829 .02734375 .32666017 .04679362 .39265953 .08569336 .44848634 .1245931 .5043132 .18017578 .53222659 .2524414 .53222659Z"/>
<path id="font_2_76" d="M.064453128 .5205078H.1538086V0H.064453128V.5205078M.064453128 .71777346H.1538086V.61816409H.064453128V.71777346Z"/>
<path id="font_2_6" d="M.0146484379 .27441407H.12812805L.17337036 .4423828H.061035158L.076171878 .49902345H.18862915L.2475586 .71777346H.3203125L.26138307 .49902345H.36997987L.42919923 .71777346H.50097659L.4417572 .49902345H.5551758L.54003909 .4423828H.42642213L.38093568 .27441407H.49414063L.4790039 .21777344H.3656006L.30664063 0H.23486328L.29382325 .21777344H.18562317L.12695313 0H.05419922L.11286926 .21777344H0L.0146484379 .27441407M.30915834 .27441407 .35464479 .4423828H.24612427L.20088196 .27441407H.30915834Z"/>
</defs>
<g clip-path="url(#clip_0)">
<path transform="matrix(.75,0,0,.75,0,0)" d="M0 0H330V138H0Z" fill="#ffffff"/>
</g>
<g clip-path="url(#clip_1)">
<path transform="matrix(.7126797,0,0,.7126797,-325.61448,-490.28627)" d="M730 740H790C790.65658 740 791.3068 740.064 791.9508 740.19216 792.5948 740.3202 793.22018 740.5099 793.8268 740.76119 794.4334 741.01248 795.00967 741.3205 795.5556 741.6853 796.10159 742.05007 796.60678 742.4646 797.07107 742.9289 797.53536 743.3932 797.9498 743.8983 798.31466 744.4442 798.67947 744.9902 798.9874 745.56649 799.2387 746.1731 799.49 746.7797 799.6796 747.405 799.80776 748.0491 799.93588 748.69308 799.99996 749.3433 800 750V760C799.99996 760.65658 799.9359 761.3068 799.8078 761.9508 799.6796 762.5948 799.4899 763.2201 799.23867 763.8267 798.98739 764.43338 798.6794 765.00967 798.31466 765.5556 797.9498 766.10159 797.53536 766.6067 797.07107 767.071 796.60678 767.5353 796.1016 767.9498 795.55569 768.31466 795.0097 768.67947 794.4334 768.9874 793.8268 769.2387 793.22018 769.49 792.5948 769.6797 791.9508 769.8078 791.3068 769.9359 790.65658 769.99996 790 770H730C729.3433 769.99996 728.693 769.9359 728.049 769.8078 727.405 769.6797 726.7797 769.49 726.1731 769.2387 725.56649 768.9874 724.9902 768.67947 724.4442 768.31466 723.89828 767.9498 723.3932 767.5353 722.9289 767.071 722.4646 766.6067 722.05 766.10159 721.6852 765.5556 721.32046 765.00967 721.0124 764.43338 720.7611 763.8267 720.5098 763.2201 720.3202 762.5948 720.1921 761.9508 720.064 761.3068 720 760.65658 720 760V750C720 749.3433 720.064 748.693 720.19216 748.049 720.3202 747.405 720.5099 746.7797 720.76119 746.1731 721.01248 745.56649 721.32046 744.9902 721.68527 744.4442 722.05007 743.8983 722.4646 743.3932 722.9289 742.9289 723.3932 742.4646 723.89828 742.05007 724.4442 741.6853 724.9902 741.3205 725.56649 741.01248 726.1731 740.76119 726.7797 740.5099 727.405 740.3202 728.0491 740.19216 728.69308 740.064 729.3433 740 730 740Z" fill="#b3b3b3"/>
<path transform="matrix(.7126797,0,0,.7126797,-325.61448,-490.28627)" stroke-width="2" stroke-linecap="butt" stroke-miterlimit="4" stroke-linejoin="miter" fill="none" stroke="#000000" d="M730 740H790C790.65658 740 791.3068 740.064 791.9508 740.19216 792.5948 740.3202 793.22018 740.5099 793.8268 740.76119 794.4334 741.01248 795.00967 741.3205 795.5556 741.6853 796.10159 742.05007 796.60678 742.4646 797.07107 742.9289 797.53536 743.3932 797.9498 743.8983 798.31466 744.4442 798.67947 744.9902 798.9874 745.56649 799.2387 746.1731 799.49 746.7797 799.6796 747.405 799.80776 748.0491 799.93588 748.69308 799.99996 749.3433 800 750V760C799.99996 760.65658 799.9359 761.3068 799.8078 761.9508 799.6796 762.5948 799.4899 763.2201 799.23867 763.8267 798.98739 764.43338 798.6794 765.00967 798.31466 765.5556 797.9498 766.10159 797.53536 766.6067 797.07107 767.071 796.60678 767.5353 796.1016 767.9498 795.55569 768.31466 795.0097 768.67947 794.4334 768.9874 793.8268 769.2387 793.22018 769.49 792.5948 769.6797 791.9508 769.8078 791.3068 769.9359 790.65658 769.99996 790 770H730C729.3433 769.99996 728.693 769.9359 728.049 769.8078 727.405 769.6797 726.7797 769.49 726.1731 769.2387 725.56649 768.9874 724.9902 768.67947 724.4442 768.31466 723.89828 767.9498 723.3932 767.5353 722.9289 767.071 722.4646 766.6067 722.05 766.10159 721.6852 765.5556 721.32046 765.00967 721.0124 764.43338 720.7611 763.8267 720.5098 763.2201 720.3202 762.5948 720.1921 761.9508 720.064 761.3068 720 760.65658 720 760V750C720 749.3433 720.064 748.693 720.19216 748.049 720.3202 747.405 720.5099 746.7797 720.76119 746.1731 721.01248 745.56649 721.32046 744.9902 721.68527 744.4442 722.05007 743.8983 722.4646 743.3932 722.9289 742.9289 723.3932 742.4646 723.89828 742.05007 724.4442 741.6853 724.9902 741.3205 725.56649 741.01248 726.1731 740.76119 726.7797 740.5099 727.405 740.3202 728.0491 740.19216 728.69308 740.064 729.3433 740 730 740Z"/>
<use data-text="c" xlink:href="#font_2_70" transform="matrix(8.552156,0,0,-8.552156,198.42783,45.648866)"/>
<use data-text="u" xlink:href="#font_2_88" transform="matrix(8.552156,0,0,-8.552156,202.70389,45.648866)"/>
<use data-text="s" xlink:href="#font_2_86" transform="matrix(8.552156,0,0,-8.552156,207.4589,45.648866)"/>
<use data-text="t" xlink:href="#font_2_87" transform="matrix(8.552156,0,0,-8.552156,211.73496,45.648866)"/>
<use data-text="o" xlink:href="#font_2_82" transform="matrix(8.552156,0,0,-8.552156,214.11246,45.648866)"/>
<use data-text="m" xlink:href="#font_2_80" transform="matrix(8.552156,0,0,-8.552156,218.86746,45.648866)"/>
<use data-text="e" xlink:href="#font_2_72" transform="matrix(8.552156,0,0,-8.552156,225.99137,45.648866)"/>
<use data-text="r" xlink:href="#font_2_85" transform="matrix(8.552156,0,0,-8.552156,230.74637,45.648866)"/>
<use data-text="_" xlink:href="#font_2_66" transform="matrix(8.552156,0,0,-8.552156,196.27866,56.33905)"/>
<use data-text="s" xlink:href="#font_2_86" transform="matrix(8.552156,0,0,-8.552156,201.03366,56.33905)"/>
<use data-text="n" xlink:href="#font_2_81" transform="matrix(8.552156,0,0,-8.552156,205.30973,56.33905)"/>
<use data-text="a" xlink:href="#font_2_68" transform="matrix(8.552156,0,0,-8.552156,210.06473,56.33905)"/>
<use data-text="p" xlink:href="#font_2_83" transform="matrix(8.552156,0,0,-8.552156,214.81974,56.33905)"/>
<use data-text="s" xlink:href="#font_2_86" transform="matrix(8.552156,0,0,-8.552156,219.57468,56.33905)"/>
<use data-text="h" xlink:href="#font_2_75" transform="matrix(8.552156,0,0,-8.552156,223.8508,56.33905)"/>
<use data-text="o" xlink:href="#font_2_82" transform="matrix(8.552156,0,0,-8.552156,228.6058,56.33905)"/>
<use data-text="t" xlink:href="#font_2_87" transform="matrix(8.552156,0,0,-8.552156,233.36075,56.33905)"/>
<path transform="matrix(.7126797,0,0,.7126797,-325.61448,-490.28627)" d="M470 740H530C530.6566 740 531.3069 740.064 531.95089 740.19216 532.59487 740.3202 533.22018 740.5099 533.8268 740.76119 534.4334 741.01248 535.0097 741.3205 535.55569 741.6853 536.1016 742.05007 536.60678 742.4646 537.07107 742.9289 537.53536 743.3932 537.9498 743.8983 538.3146 744.4442 538.6794 744.9902 538.9874 745.56649 539.2387 746.1731 539.49 746.7797 539.6797 747.405 539.8078 748.0491 539.9359 748.69308 540 749.3433 540 750V760C540 760.65658 539.9359 761.3068 539.8078 761.9508 539.6797 762.5948 539.49 763.2201 539.2387 763.8267 538.9874 764.43338 538.6794 765.00967 538.3146 765.5556 537.9498 766.10159 537.53536 766.6067 537.07107 767.071 536.60678 767.5353 536.1016 767.9498 535.55569 768.31466 535.0097 768.67947 534.4334 768.9874 533.8268 769.2387 533.22018 769.49 532.59487 769.6797 531.95089 769.8078 531.3069 769.9359 530.6566 769.99996 530 770H470C469.34336 769.99996 468.69306 769.9359 468.04905 769.8078 467.40504 769.6797 466.77973 769.49 466.1731 769.2387 465.56648 768.9874 464.99018 768.67947 464.44425 768.31466 463.8983 767.9498 463.39317 767.5353 462.9289 767.071 462.4646 766.6067 462.05006 766.10159 461.68525 765.5556 461.32044 765.00967 461.0124 764.43338 460.76115 763.8267 460.5099 763.2201 460.3202 762.5948 460.1921 761.9508 460.06404 761.3068 459.99998 760.65658 460 760V750C459.99998 749.3433 460.06404 748.693 460.1921 748.049 460.3202 747.405 460.5099 746.7797 460.76115 746.1731 461.0124 745.56649 461.32044 744.9902 461.68528 744.4442 462.05006 743.8983 462.4646 743.3932 462.9289 742.9289 463.39317 742.4646 463.8983 742.05007 464.44425 741.6853 464.99018 741.3205 465.56648 741.01248 466.1731 740.76119 466.77973 740.5099 467.40504 740.3202 468.04905 740.19216 468.69306 740.064 469.34336 740 470 740Z" fill="#b3b3b3"/>
<path transform="matrix(.7126797,0,0,.7126797,-325.61448,-490.28627)" stroke-width="2" stroke-linecap="butt" stroke-miterlimit="4" stroke-linejoin="miter" fill="none" stroke="#000000" d="M470 740H530C530.6566 740 531.3069 740.064 531.95089 740.19216 532.59487 740.3202 533.22018 740.5099 533.8268 740.76119 534.4334 741.01248 535.0097 741.3205 535.55569 741.6853 536.1016 742.05007 536.60678 742.4646 537.07107 742.9289 537.53536 743.3932 537.9498 743.8983 538.3146 744.4442 538.6794 744.9902 538.9874 745.56649 539.2387 746.1731 539.49 746.7797 539.6797 747.405 539.8078 748.0491 539.9359 748.69308 540 749.3433 540 750V760C540 760.65658 539.9359 761.3068 539.8078 761.9508 539.6797 762.5948 539.49 763.2201 539.2387 763.8267 538.9874 764.43338 538.6794 765.00967 538.3146 765.5556 537.9498 766.10159 537.53536 766.6067 537.07107 767.071 536.60678 767.5353 536.1016 767.9498 535.55569 768.31466 535.0097 768.67947 534.4334 768.9874 533.8268 769.2387 533.22018 769.49 532.59487 769.6797 531.95089 769.8078 531.3069 769.9359 530.6566 769.99996 530 770H470C469.34336 769.99996 468.69306 769.9359 468.04905 769.8078 467.40504 769.6797 466.77973 769.49 466.1731 769.2387 465.56648 768.9874 464.99018 768.67947 464.44425 768.31466 463.8983 767.9498 463.39317 767.5353 462.9289 767.071 462.4646 766.6067 462.05006 766.10159 461.68525 765.5556 461.32044 765.00967 461.0124 764.43338 460.76115 763.8267 460.5099 763.2201 460.3202 762.5948 460.1921 761.9508 460.06404 761.3068 459.99998 760.65658 460 760V750C459.99998 749.3433 460.06404 748.693 460.1921 748.049 460.3202 747.405 460.5099 746.7797 460.76115 746.1731 461.0124 745.56649 461.32044 744.9902 461.68528 744.4442 462.05006 743.8983 462.4646 743.3932 462.9289 742.9289 463.39317 742.4646 463.8983 742.05007 464.44425 741.6853 464.99018 741.3205 465.56648 741.01248 466.1731 740.76119 466.77973 740.5099 467.40504 740.3202 468.04905 740.19216 468.69306 740.064 469.34336 740 470 740Z"/>
<use data-text="f" xlink:href="#font_2_73" transform="matrix(8.552156,0,0,-8.552156,17.65216,50.637636)"/>
<use data-text="o" xlink:href="#font_2_82" transform="matrix(8.552156,0,0,-8.552156,20.029664,50.637636)"/>
<use data-text="l" xlink:href="#font_2_79" transform="matrix(8.552156,0,0,-8.552156,24.784638,50.637636)"/>
<use data-text="l" xlink:href="#font_2_79" transform="matrix(8.552156,0,0,-8.552156,26.683228,50.637636)"/>
<use data-text="o" xlink:href="#font_2_82" transform="matrix(8.552156,0,0,-8.552156,28.581818,50.637636)"/>
<use data-text="w" xlink:href="#font_2_90" transform="matrix(8.552156,0,0,-8.552156,33.336793,50.637636)"/>
<use data-text="s" xlink:href="#font_2_86" transform="matrix(8.552156,0,0,-8.552156,39.511476,50.637636)"/>
<path transform="matrix(.7126797,0,0,.7126797,-325.61448,-490.28627)" d="M730 800H790C790.65658 800 791.3068 800.064 791.9508 800.19216 792.5948 800.32028 793.22018 800.5099 793.8268 800.76119 794.4334 801.0124 795.00967 801.32046 795.5556 801.68527 796.10159 802.05007 796.60678 802.4646 797.07107 802.9289 797.53536 803.3931 797.9498 803.89828 798.31466 804.4442 798.67947 804.9901 798.9874 805.5664 799.2387 806.17306 799.49 806.77969 799.6796 807.405 799.80776 808.049 799.93588 808.693 799.99996 809.3433 800 810V820C799.99996 820.65658 799.9359 821.3069 799.8078 821.95089 799.6796 822.59487 799.4899 823.2201 799.23867 823.8267 798.98739 824.43338 798.6794 825.00967 798.31466 825.5556 797.9498 826.10159 797.53536 826.60678 797.07107 827.07107 796.60678 827.53536 796.1016 827.9498 795.55569 828.31466 795.0097 828.67947 794.4334 828.9875 793.8268 829.2388 793.22018 829.49008 792.5948 829.6797 791.9508 829.8078 791.3068 829.9359 790.65658 830 790 830H730C729.3433 830 728.693 829.9359 728.049 829.8078 727.405 829.6797 726.7797 829.49008 726.1731 829.2388 725.56649 828.9875 724.9902 828.67947 724.4442 828.31466 723.89828 827.9498 723.3932 827.53536 722.9289 827.07107 722.4646 826.60678 722.05 826.1016 721.6852 825.55569 721.32046 825.0097 721.0124 824.4334 720.7611 823.8268 720.5098 823.22018 720.3202 822.59487 720.1921 821.95089 720.064 821.3069 720 820.65658 720 820V810C720 809.3433 720.064 808.693 720.19216 808.049 720.3202 807.405 720.5099 806.7797 720.76119 806.1731 721.01248 805.56649 721.32046 804.9902 721.68527 804.4442 722.05007 803.89828 722.4646 803.3931 722.9289 802.9289 723.3932 802.4646 723.89828 802.05007 724.4442 801.68527 724.9902 801.32046 725.56649 801.0124 726.1731 800.76119 726.7797 800.5099 727.405 800.32028 728.0491 800.19216 728.69308 800.064 729.3433 800 730 800Z" fill="#b3b3b3"/>
<path transform="matrix(.7126797,0,0,.7126797,-325.61448,-490.28627)" stroke-width="2" stroke-linecap="butt" stroke-miterlimit="4" stroke-linejoin="miter" fill="none" stroke="#000000" d="M730 800H790C790.65658 800 791.3068 800.064 791.9508 800.19216 792.5948 800.32028 793.22018 800.5099 793.8268 800.76119 794.4334 801.0124 795.00967 801.32046 795.5556 801.68527 796.10159 802.05007 796.60678 802.4646 797.07107 802.9289 797.53536 803.3931 797.9498 803.89828 798.31466 804.4442 798.67947 804.9901 798.9874 805.5664 799.2387 806.17306 799.49 806.77969 799.6796 807.405 799.80776 808.049 799.93588 808.693 799.99996 809.3433 800 810V820C799.99996 820.65658 799.9359 821.3069 799.8078 821.95089 799.6796 822.59487 799.4899 823.2201 799.23867 823.8267 798.98739 824.43338 798.6794 825.00967 798.31466 825.5556 797.9498 826.10159 797.53536 826.60678 797.07107 827.07107 796.60678 827.53536 796.1016 827.9498 795.55569 828.31466 795.0097 828.67947 794.4334 828.9875 793.8268 829.2388 793.22018 829.49008 792.5948 829.6797 791.9508 829.8078 791.3068 829.9359 790.65658 830 790 830H730C729.3433 830 728.693 829.9359 728.049 829.8078 727.405 829.6797 726.7797 829.49008 726.1731 829.2388 725.56649 828.9875 724.9902 828.67947 724.4442 828.31466 723.89828 827.9498 723.3932 827.53536 722.9289 827.07107 722.4646 826.60678 722.05 826.1016 721.6852 825.55569 721.32046 825.0097 721.0124 824.4334 720.7611 823.8268 720.5098 823.22018 720.3202 822.59487 720.1921 821.95089 720.064 821.3069 720 820.65658 720 820V810C720 809.3433 720.064 808.693 720.19216 808.049 720.3202 807.405 720.5099 806.7797 720.76119 806.1731 721.01248 805.56649 721.32046 804.9902 721.68527 804.4442 722.05007 803.89828 722.4646 803.3931 722.9289 802.9289 723.3932 802.4646 723.89828 802.05007 724.4442 801.68527 724.9902 801.32046 725.56649 801.0124 726.1731 800.76119 726.7797 800.5099 727.405 800.32028 728.0491 800.19216 728.69308 800.064 729.3433 800 730 800Z"/>
<use data-text="o" xlink:href="#font_2_82" transform="matrix(8.552156,0,0,-8.552156,206.03342,93.39838)"/>
<use data-text="r" xlink:href="#font_2_85" transform="matrix(8.552156,0,0,-8.552156,210.78842,93.39838)"/>
<use data-text="d" xlink:href="#font_2_71" transform="matrix(8.552156,0,0,-8.552156,213.63626,93.39838)"/>
<use data-text="e" xlink:href="#font_2_72" transform="matrix(8.552156,0,0,-8.552156,218.39127,93.39838)"/>
<use data-text="r" xlink:href="#font_2_85" transform="matrix(8.552156,0,0,-8.552156,223.14627,93.39838)"/>
<path transform="matrix(.7126797,0,0,.7126797,-325.61448,-490.28627)" d="M600 800H660C660.65658 800 661.30679 800.064 661.95077 800.19216 662.5947 800.32028 663.22006 800.5099 663.82669 800.76119 664.4333 801.0124 665.0096 801.32046 665.55557 801.68527 666.1015 802.05007 666.6067 802.4646 667.071 802.9289 667.5353 803.3931 667.9498 803.89828 668.31466 804.4442 668.6794 804.9901 668.9874 805.5664 669.2387 806.17306 669.49 806.77969 669.6797 807.405 669.8078 808.049 669.9359 808.693 669.99996 809.3433 670 810V820C669.99996 820.65658 669.9359 821.3069 669.8078 821.95089 669.6797 822.59487 669.49 823.2201 669.2387 823.8267 668.9874 824.43338 668.6794 825.00967 668.31466 825.5556 667.9498 826.10159 667.5353 826.60678 667.071 827.07107 666.6067 827.53536 666.1015 827.9498 665.55557 828.31466 665.0096 828.67947 664.4333 828.9875 663.82669 829.2388 663.22006 829.49008 662.5947 829.6797 661.95077 829.8078 661.30679 829.9359 660.65658 830 660 830H600C599.3434 830 598.69308 829.9359 598.0491 829.8078 597.4051 829.6797 596.7797 829.49008 596.1731 829.2388 595.56649 828.9875 594.9902 828.67947 594.4442 828.31466 593.89828 827.9498 593.3932 827.53536 592.9289 827.07107 592.4646 826.60678 592.05007 826.1016 591.68527 825.55569 591.32046 825.0097 591.0124 824.4334 590.7611 823.8268 590.5098 823.22018 590.3201 822.59487 590.1921 821.95089 590.064 821.3069 590 820.65658 590 820V810C590 809.3433 590.064 808.693 590.1921 808.049 590.3201 807.405 590.5098 806.7797 590.7611 806.1731 591.0124 805.56649 591.32046 804.9902 591.68527 804.4442 592.05007 803.89828 592.4646 803.3931 592.9289 802.9289 593.3932 802.4646 593.89828 802.05007 594.4442 801.68527 594.9902 801.32046 595.56649 801.0124 596.1731 800.76119 596.7797 800.5099 597.4051 800.32028 598.0491 800.19216 598.69308 800.064 599.3434 800 600 800Z" fill="#b3b3b3"/>
<path transform="matrix(.7126797,0,0,.7126797,-325.61448,-490.28627)" stroke-width="2" stroke-linecap="butt" stroke-miterlimit="4" stroke-linejoin="miter" fill="none" stroke="#000000" d="M600 800H660C660.65658 800 661.30679 800.064 661.95077 800.19216 662.5947 800.32028 663.22006 800.5099 663.82669 800.76119 664.4333 801.0124 665.0096 801.32046 665.55557 801.68527 666.1015 802.05007 666.6067 802.4646 667.071 802.9289 667.5353 803.3931 667.9498 803.89828 668.31466 804.4442 668.6794 804.9901 668.9874 805.5664 669.2387 806.17306 669.49 806.77969 669.6797 807.405 669.8078 808.049 669.9359 808.693 669.99996 809.3433 670 810V820C669.99996 820.65658 669.9359 821.3069 669.8078 821.95089 669.6797 822.59487 669.49 823.2201 669.2387 823.8267 668.9874 824.43338 668.6794 825.00967 668.31466 825.5556 667.9498 826.10159 667.5353 826.60678 667.071 827.07107 666.6067 827.53536 666.1015 827.9498 665.55557 828.31466 665.0096 828.67947 664.4333 828.9875 663.82669 829.2388 663.22006 829.49008 662.5947 829.6797 661.95077 829.8078 661.30679 829.9359 660.65658 830 660 830H600C599.3434 830 598.69308 829.9359 598.0491 829.8078 597.4051 829.6797 596.7797 829.49008 596.1731 829.2388 595.56649 828.9875 594.9902 828.67947 594.4442 828.31466 593.89828 827.9498 593.3932 827.53536 592.9289 827.07107 592.4646 826.60678 592.05007 826.1016 591.68527 825.55569 591.32046 825.0097 591.0124 824.4334 590.7611 823.8268 590.5098 823.22018 590.3201 822.59487 590.1921 821.95089 590.064 821.3069 590 820.65658 590 820V810C590 809.3433 590.064 808.693 590.1921 808.049 590.3201 807.405 590.5098 806.7797 590.7611 806.1731 591.0124 805.56649 591.32046 804.9902 591.68527 804.4442 592.05007 803.89828 592.4646 803.3931 592.9289 802.9289 593.3932 802.4646 593.89828 802.05007 594.4442 801.68527 594.9902 801.32046 595.56649 801.0124 596.1731 800.76119 596.7797 800.5099 597.4051 800.32028 598.0491 800.19216 598.69308 800.064 599.3434 800 600 800Z"/>
<use data-text="o" xlink:href="#font_2_82" transform="matrix(8.552156,0,0,-8.552156,102.92874,93.39838)"/>
<use data-text="r" xlink:href="#font_2_85" transform="matrix(8.552156,0,0,-8.552156,107.683719,93.39838)"/>
<use data-text="d" xlink:href="#font_2_71" transform="matrix(8.552156,0,0,-8.552156,110.531589,93.39838)"/>
<use data-text="e" xlink:href="#font_2_72" transform="matrix(8.552156,0,0,-8.552156,115.28656,93.39838)"/>
<use data-text="r" xlink:href="#font_2_85" transform="matrix(8.552156,0,0,-8.552156,120.041568,93.39838)"/>
<use data-text="_" xlink:href="#font_2_66" transform="matrix(8.552156,0,0,-8.552156,122.889408,93.39838)"/>
<use data-text="i" xlink:href="#font_2_76" transform="matrix(8.552156,0,0,-8.552156,127.64441,93.39838)"/>
<use data-text="t" xlink:href="#font_2_87" transform="matrix(8.552156,0,0,-8.552156,129.543,93.39838)"/>
<use data-text="e" xlink:href="#font_2_72" transform="matrix(8.552156,0,0,-8.552156,131.9205,93.39838)"/>
<use data-text="m" xlink:href="#font_2_80" transform="matrix(8.552156,0,0,-8.552156,136.67548,93.39838)"/>
<path transform="matrix(.7126797,0,0,.7126797,-325.61448,-490.28627)" d="M470 800H530C530.6566 800 531.3069 800.064 531.95089 800.19216 532.59487 800.32028 533.22018 800.5099 533.8268 800.76119 534.4334 801.0124 535.0097 801.32046 535.55569 801.68527 536.1016 802.05007 536.60678 802.4646 537.07107 802.9289 537.53536 803.3931 537.9498 803.89828 538.3146 804.4442 538.6794 804.9901 538.9874 805.5664 539.2387 806.17306 539.49 806.77969 539.6797 807.405 539.8078 808.049 539.9359 808.693 540 809.3433 540 810V820C540 820.65658 539.9359 821.3069 539.8078 821.95089 539.6797 822.59487 539.49 823.2201 539.2387 823.8267 538.9874 824.43338 538.6794 825.00967 538.3146 825.5556 537.9498 826.10159 537.53536 826.60678 537.07107 827.07107 536.60678 827.53536 536.1016 827.9498 535.55569 828.31466 535.0097 828.67947 534.4334 828.9875 533.8268 829.2388 533.22018 829.49008 532.59487 829.6797 531.95089 829.8078 531.3069 829.9359 530.6566 830 530 830H470C469.34336 830 468.69306 829.9359 468.04905 829.8078 467.40504 829.6797 466.77973 829.49008 466.1731 829.2388 465.56648 828.9875 464.99018 828.67947 464.44425 828.31466 463.8983 827.9498 463.39317 827.53536 462.9289 827.07107 462.4646 826.60678 462.05006 826.1016 461.68525 825.55569 461.32044 825.0097 461.0124 824.4334 460.76115 823.8268 460.5099 823.22018 460.3202 822.59487 460.1921 821.95089 460.06404 821.3069 459.99998 820.65658 460 820V810C459.99998 809.3433 460.06404 808.693 460.1921 808.049 460.3202 807.405 460.5099 806.7797 460.76115 806.1731 461.0124 805.56649 461.32044 804.9902 461.68528 804.4442 462.05006 803.89828 462.4646 803.3931 462.9289 802.9289 463.39317 802.4646 463.8983 802.05007 464.44425 801.68527 464.99018 801.32046 465.56648 801.0124 466.1731 800.76119 466.77973 800.5099 467.40504 800.32028 468.04905 800.19216 468.69306 800.064 469.34336 800 470 800Z" fill="#b3b3b3"/>
<path transform="matrix(.7126797,0,0,.7126797,-325.61448,-490.28627)" stroke-width="2" stroke-linecap="butt" stroke-miterlimit="4" stroke-linejoin="miter" fill="none" stroke="#000000" d="M470 800H530C530.6566 800 531.3069 800.064 531.95089 800.19216 532.59487 800.32028 533.22018 800.5099 533.8268 800.76119 534.4334 801.0124 535.0097 801.32046 535.55569 801.68527 536.1016 802.05007 536.60678 802.4646 537.07107 802.9289 537.53536 803.3931 537.9498 803.89828 538.3146 804.4442 538.6794 804.9901 538.9874 805.5664 539.2387 806.17306 539.49 806.77969 539.6797 807.405 539.8078 808.049 539.9359 808.693 540 809.3433 540 810V820C540 820.65658 539.9359 821.3069 539.8078 821.95089 539.6797 822.59487 539.49 823.2201 539.2387 823.8267 538.9874 824.43338 538.6794 825.00967 538.3146 825.5556 537.9498 826.10159 537.53536 826.60678 537.07107 827.07107 536.60678 827.53536 536.1016 827.9498 535.55569 828.31466 535.0097 828.67947 534.4334 828.9875 533.8268 829.2388 533.22018 829.49008 532.59487 829.6797 531.95089 829.8078 531.3069 829.9359 530.6566 830 530 830H470C469.34336 830 468.69306 829.9359 468.04905 829.8078 467.40504 829.6797 466.77973 829.49008 466.1731 829.2388 465.56648 828.9875 464.99018 828.67947 464.44425 828.31466 463.8983 827.9498 463.39317 827.53536 462.9289 827.07107 462.4646 826.60678 462.05006 826.1016 461.68525 825.55569 461.32044 825.0097 461.0124 824.4334 460.76115 823.8268 460.5099 823.22018 460.3202 822.59487 460.1921 821.95089 460.06404 821.3069 459.99998 820.65658 460 820V810C459.99998 809.3433 460.06404 808.693 460.1921 808.049 460.3202 807.405 460.5099 806.7797 460.76115 806.1731 461.0124 805.56649 461.32044 804.9902 461.68528 804.4442 462.05006 803.89828 462.4646 803.3931 462.9289 802.9289 463.39317 802.4646 463.8983 802.05007 464.44425 801.68527 464.99018 801.32046 465.56648 801.0124 466.1731 800.76119 466.77973 800.5099 467.40504 800.32028 468.04905 800.19216 468.69306 800.064 469.34336 800 470 800Z"/>
<use data-text="p" xlink:href="#font_2_83" transform="matrix(8.552156,0,0,-8.552156,16.460633,93.39838)"/>
<use data-text="r" xlink:href="#font_2_85" transform="matrix(8.552156,0,0,-8.552156,21.215638,93.39838)"/>
<use data-text="o" xlink:href="#font_2_82" transform="matrix(8.552156,0,0,-8.552156,24.063508,93.39838)"/>
<use data-text="d" xlink:href="#font_2_71" transform="matrix(8.552156,0,0,-8.552156,28.818512,93.39838)"/>
<use data-text="u" xlink:href="#font_2_88" transform="matrix(8.552156,0,0,-8.552156,33.573488,93.39838)"/>
<use data-text="c" xlink:href="#font_2_70" transform="matrix(8.552156,0,0,-8.552156,38.32849,93.39838)"/>
<use data-text="t" xlink:href="#font_2_87" transform="matrix(8.552156,0,0,-8.552156,42.604555,93.39838)"/>
<path transform="matrix(.7126797,0,0,.7126797,-325.61448,-490.28627)" stroke-width="2" stroke-linecap="butt" stroke-miterlimit="10" stroke-linejoin="miter" fill="none" stroke="#000000" d="M590 815H548.24"/>
<path transform="matrix(.7126797,0,0,.7126797,-325.61448,-490.28627)" d="M542.24 815 550.24 811 548.24 815 550.24 819 542.24 815Z"/>
<path transform="matrix(.7126797,0,0,.7126797,-325.61448,-490.28627)" stroke-width="2" stroke-linecap="butt" stroke-miterlimit="10" stroke-linejoin="miter" fill="none" stroke="#000000" d="M542.24 815 550.24 811 548.24 815 550.24 819 542.24 815Z"/>
<path transform="matrix(.7126797,0,0,.7126797,-325.61448,-490.28627)" stroke-width="2" stroke-linecap="butt" stroke-miterlimit="10" stroke-linejoin="miter" fill="none" stroke="#000000" d="M670 815H711.76"/>
<path transform="matrix(.7126797,0,0,.7126797,-325.61448,-490.28627)" d="M717.76 815 709.76 819 711.76 815 709.76 811 717.76 815Z"/>
<path transform="matrix(.7126797,0,0,.7126797,-325.61448,-490.28627)" stroke-width="2" stroke-linecap="butt" stroke-miterlimit="10" stroke-linejoin="miter" fill="none" stroke="#000000" d="M717.76 815 709.76 819 711.76 815 709.76 811 717.76 815Z"/>
<path transform="matrix(.7126797,0,0,.7126797,-325.61448,-490.28627)" stroke-width="2" stroke-linecap="butt" stroke-miterlimit="10" stroke-linejoin="miter" fill="none" stroke="#000000" d="M760 800V778.24"/>
<path transform="matrix(.7126797,0,0,.7126797,-325.61448,-490.28627)" d="M760 772.24 764 780.24 760 778.24 756 780.24 760 772.24Z"/>
<path transform="matrix(.7126797,0,0,.7126797,-325.61448,-490.28627)" stroke-width="2" stroke-linecap="butt" stroke-miterlimit="10" stroke-linejoin="miter" fill="none" stroke="#000000" d="M760 772.24 764 780.24 760 778.24 756 780.24 760 772.24Z"/>
<path transform="matrix(.7126797,0,0,.7126797,-325.61448,-490.28627)" stroke-width="2" stroke-linecap="butt" stroke-miterlimit="10" stroke-linejoin="miter" fill="none" stroke="#000000" d="M760 740 722.53 723.34"/>
<path transform="matrix(.7126797,0,0,.7126797,-325.61448,-490.28627)" d="M717.04 720.91 725.98 720.5 722.53 723.34 722.73 727.81 717.04 720.91Z"/>
<path transform="matrix(.7126797,0,0,.7126797,-325.61448,-490.28627)" stroke-width="2" stroke-linecap="butt" stroke-miterlimit="10" stroke-linejoin="miter" fill="none" stroke="#000000" d="M717.04 720.91 725.98 720.5 722.53 723.34 722.73 727.81 717.04 720.91Z"/>
<path transform="matrix(.7126797,0,0,.7126797,-325.61448,-490.28627)" stroke-width="2" stroke-linecap="butt" stroke-miterlimit="10" stroke-linejoin="miter" fill="none" stroke="#000000" d="M540 747.5H581.76"/>
<path transform="matrix(.7126797,0,0,.7126797,-325.61448,-490.28627)" d="M587.76 747.5 579.76 751.5 581.76 747.5 579.76 743.5 587.76 747.5Z"/>
<path transform="matrix(.7126797,0,0,.7126797,-325.61448,-490.28627)" stroke-width="2" stroke-linecap="butt" stroke-miterlimit="10" stroke-linejoin="miter" fill="none" stroke="#000000" d="M587.76 747.5 579.76 751.5 581.76 747.5 579.76 743.5 587.76 747.5Z"/>
<path transform="matrix(.7126797,0,0,.7126797,-325.61448,-490.28627)" stroke-width="2" stroke-linecap="butt" stroke-miterlimit="10" stroke-linejoin="miter" fill="none" stroke="#000000" d="M540 762.5H581.76"/>
<path transform="matrix(.7126797,0,0,.7126797,-325.61448,-490.28627)" d="M587.76 762.5 579.76 766.5 581.76 762.5 579.76 758.5 587.76 762.5Z"/>
<path transform="matrix(.7126797,0,0,.7126797,-325.61448,-490.28627)" stroke-width="2" stroke-linecap="butt" stroke-miterlimit="10" stroke-linejoin="miter" fill="none" stroke="#000000" d="M587.76 762.5 579.76 766.5 581.76 762.5 579.76 758.5 587.76 762.5Z"/>
<use data-text="#" xlink:href="#font_2_6" transform="matrix(8.552156,0,0,-8.552156,108.39633,32.820619)"/>
<use data-text="i" xlink:href="#font_2_76" transform="matrix(8.552156,0,0,-8.552156,113.151309,32.820619)"/>
<use data-text="s" xlink:href="#font_2_86" transform="matrix(8.552156,0,0,-8.552156,115.0499,32.820619)"/>
<use data-text="a" xlink:href="#font_2_68" transform="matrix(8.552156,0,0,-8.552156,119.32599,32.820619)"/>
<use data-text="#" xlink:href="#font_2_6" transform="matrix(8.552156,0,0,-8.552156,71.10312,86.27161)"/>
<use data-text="r" xlink:href="#font_2_85" transform="matrix(8.552156,0,0,-8.552156,75.85812,86.27161)"/>
<use data-text="o" xlink:href="#font_2_82" transform="matrix(8.552156,0,0,-8.552156,78.70596,86.27161)"/>
<use data-text="l" xlink:href="#font_2_79" transform="matrix(8.552156,0,0,-8.552156,83.46097,86.27161)"/>
<use data-text="e" xlink:href="#font_2_72" transform="matrix(8.552156,0,0,-8.552156,85.35956,86.27161)"/>
<use data-text="#" xlink:href="#font_2_6" transform="matrix(8.552156,0,0,-8.552156,160.18808,86.27161)"/>
<use data-text="r" xlink:href="#font_2_85" transform="matrix(8.552156,0,0,-8.552156,164.94309,86.27161)"/>
<use data-text="o" xlink:href="#font_2_82" transform="matrix(8.552156,0,0,-8.552156,167.79093,86.27161)"/>
<use data-text="l" xlink:href="#font_2_79" transform="matrix(8.552156,0,0,-8.552156,172.54593,86.27161)"/>
<use data-text="e" xlink:href="#font_2_72" transform="matrix(8.552156,0,0,-8.552156,174.44452,86.27161)"/>
<path transform="matrix(.7126797,0,0,.7126797,-325.61448,-490.28627)" d="M665 690H725C725.65658 690.00009 726.3068 690.0641 726.9508 690.19216 727.5948 690.32028 728.2201 690.5099 728.8267 690.76119 729.43338 691.01248 730.00967 691.32046 730.5556 691.68527 731.10159 692.05007 731.6067 692.4646 732.071 692.9289 732.5352 693.3932 732.94979 693.89828 733.3146 694.4442 733.6794 694.9902 733.9874 695.56649 734.2387 696.1731 734.4899 696.7798 734.6796 697.4051 734.8078 698.0491 734.9359 698.6931 734.99996 699.34347 735 700V710C734.99996 710.65658 734.9359 711.3068 734.8078 711.9508 734.6796 712.5948 734.4899 713.22018 734.2387 713.8268 733.9874 714.4334 733.6794 715.00967 733.3146 715.5556 732.94979 716.10159 732.5352 716.6067 732.071 717.07107 731.6067 717.53536 731.1015 717.9499 730.55557 718.3147 730.0096 718.67947 729.43338 718.9874 728.8267 719.2387 728.2201 719.49 727.5948 719.6797 726.9508 719.80789 726.3068 719.936 725.65658 720 725 720H665C664.3433 720 663.693 719.936 663.049 719.80789 662.405 719.67977 661.7797 719.49008 661.1731 719.2388 660.56649 718.9875 659.9902 718.6795 659.4442 718.3147 658.89828 717.9499 658.3932 717.53536 657.9289 717.07107 657.4646 716.6067 657.05007 716.10159 656.68527 715.5556 656.32046 715.00967 656.0124 714.4334 655.7611 713.8268 655.5098 713.22018 655.3202 712.5948 655.19216 711.9508 655.064 711.3068 654.99996 710.65658 655 710V700C654.99996 699.34347 655.064 698.6931 655.19216 698.04916 655.3202 697.40518 655.5098 696.7798 655.7611 696.1731 656.0124 695.56649 656.32046 694.9902 656.68527 694.4443 657.05007 693.8983 657.4646 693.3932 657.9289 692.9289 658.3932 692.4646 658.89828 692.05007 659.4442 691.68527 659.9902 691.32046 660.56649 691.01248 661.1731 690.76119 661.7797 690.5099 662.405 690.32028 663.049 690.19216 663.693 690.0641 664.3433 690.00009 665 690Z" fill="#b3b3b3"/>
<path transform="matrix(.7126797,0,0,.7126797,-325.61448,-490.28627)" stroke-width="2" stroke-linecap="butt" stroke-miterlimit="4" stroke-linejoin="miter" fill="none" stroke="#000000" d="M665 690H725C725.65658 690.00009 726.3068 690.0641 726.9508 690.19216 727.5948 690.32028 728.2201 690.5099 728.8267 690.76119 729.43338 691.01248 730.00967 691.32046 730.5556 691.68527 731.10159 692.05007 731.6067 692.4646 732.071 692.9289 732.5352 693.3932 732.94979 693.89828 733.3146 694.4442 733.6794 694.9902 733.9874 695.56649 734.2387 696.1731 734.4899 696.7798 734.6796 697.4051 734.8078 698.0491 734.9359 698.6931 734.99996 699.34347 735 700V710C734.99996 710.65658 734.9359 711.3068 734.8078 711.9508 734.6796 712.5948 734.4899 713.22018 734.2387 713.8268 733.9874 714.4334 733.6794 715.00967 733.3146 715.5556 732.94979 716.10159 732.5352 716.6067 732.071 717.07107 731.6067 717.53536 731.1015 717.9499 730.55557 718.3147 730.0096 718.67947 729.43338 718.9874 728.8267 719.2387 728.2201 719.49 727.5948 719.6797 726.9508 719.80789 726.3068 719.936 725.65658 720 725 720H665C664.3433 720 663.693 719.936 663.049 719.80789 662.405 719.67977 661.7797 719.49008 661.1731 719.2388 660.56649 718.9875 659.9902 718.6795 659.4442 718.3147 658.89828 717.9499 658.3932 717.53536 657.9289 717.07107 657.4646 716.6067 657.05007 716.10159 656.68527 715.5556 656.32046 715.00967 656.0124 714.4334 655.7611 713.8268 655.5098 713.22018 655.3202 712.5948 655.19216 711.9508 655.064 711.3068 654.99996 710.65658 655 710V700C654.99996 699.34347 655.064 698.6931 655.19216 698.04916 655.3202 697.40518 655.5098 696.7798 655.7611 696.1731 656.0124 695.56649 656.32046 694.9902 656.68527 694.4443 657.05007 693.8983 657.4646 693.3932 657.9289 692.9289 658.3932 692.4646 658.89828 692.05007 659.4442 691.68527 659.9902 691.32046 660.56649 691.01248 661.1731 690.76119 661.7797 690.5099 662.405 690.32028 663.049 690.19216 663.693 690.0641 664.3433 690.00009 665 690Z"/>
<use data-text="p" xlink:href="#font_2_83" transform="matrix(8.552156,0,0,-8.552156,156.61356,15.003632)"/>
<use data-text="e" xlink:href="#font_2_72" transform="matrix(8.552156,0,0,-8.552156,161.36856,15.003632)"/>
<use data-text="r" xlink:href="#font_2_85" transform="matrix(8.552156,0,0,-8.552156,166.12354,15.003632)"/>
<use data-text="s" xlink:href="#font_2_86" transform="matrix(8.552156,0,0,-8.552156,168.9714,15.003632)"/>
<use data-text="o" xlink:href="#font_2_82" transform="matrix(8.552156,0,0,-8.552156,173.24747,15.003632)"/>
<use data-text="n" xlink:href="#font_2_81" transform="matrix(8.552156,0,0,-8.552156,178.00247,15.003632)"/>
<use data-text="#" xlink:href="#font_2_6" transform="matrix(8.552156,0,0,-8.552156,67.539737,64.891239)"/>
<use data-text="r" xlink:href="#font_2_85" transform="matrix(8.552156,0,0,-8.552156,72.29474,64.891239)"/>
<use data-text="o" xlink:href="#font_2_82" transform="matrix(8.552156,0,0,-8.552156,75.14258,64.891239)"/>
<use data-text="l" xlink:href="#font_2_79" transform="matrix(8.552156,0,0,-8.552156,79.89758,64.891239)"/>
<use data-text="e" xlink:href="#font_2_72" transform="matrix(8.552156,0,0,-8.552156,81.79614,64.891239)"/>
<use data-text="#" xlink:href="#font_2_6" transform="matrix(8.552156,0,0,-8.552156,67.539737,36.384035)"/>
<use data-text="r" xlink:href="#font_2_85" transform="matrix(8.552156,0,0,-8.552156,72.29474,36.384035)"/>
<use data-text="o" xlink:href="#font_2_82" transform="matrix(8.552156,0,0,-8.552156,75.14258,36.384035)"/>
<use data-text="l" xlink:href="#font_2_79" transform="matrix(8.552156,0,0,-8.552156,79.89758,36.384035)"/>
<use data-text="e" xlink:href="#font_2_72" transform="matrix(8.552156,0,0,-8.552156,81.79614,36.384035)"/>
<path transform="matrix(.7126797,0,0,.7126797,-325.61448,-490.28627)" d="M600 740H660C660.65658 740 661.30679 740.064 661.95077 740.19216 662.5947 740.3202 663.22006 740.5099 663.82669 740.76119 664.4333 741.01248 665.0096 741.3205 665.55557 741.6853 666.1015 742.05007 666.6067 742.4646 667.071 742.9289 667.5353 743.3932 667.9498 743.8983 668.31466 744.4442 668.6794 744.9902 668.9874 745.56649 669.2387 746.1731 669.49 746.7797 669.6797 747.405 669.8078 748.0491 669.9359 748.69308 669.99996 749.3433 670 750V760C669.99996 760.65658 669.9359 761.3068 669.8078 761.9508 669.6797 762.5948 669.49 763.2201 669.2387 763.8267 668.9874 764.43338 668.6794 765.00967 668.31466 765.5556 667.9498 766.10159 667.5353 766.6067 667.071 767.071 666.6067 767.5353 666.1015 767.9498 665.55557 768.31466 665.0096 768.67947 664.4333 768.9874 663.82669 769.2387 663.22006 769.49 662.5947 769.6797 661.95077 769.8078 661.30679 769.9359 660.65658 769.99996 660 770H600C599.3434 769.99996 598.69308 769.9359 598.0491 769.8078 597.4051 769.6797 596.7797 769.49 596.1731 769.2387 595.56649 768.9874 594.9902 768.67947 594.4442 768.31466 593.89828 767.9498 593.3932 767.5353 592.9289 767.071 592.4646 766.6067 592.05007 766.10159 591.68527 765.5556 591.32046 765.00967 591.0124 764.43338 590.7611 763.8267 590.5098 763.2201 590.3201 762.5948 590.1921 761.9508 590.064 761.3068 590 760.65658 590 760V750C590 749.3433 590.064 748.693 590.1921 748.049 590.3201 747.405 590.5098 746.7797 590.7611 746.1731 591.0124 745.56649 591.32046 744.9902 591.68527 744.4442 592.05007 743.8983 592.4646 743.3932 592.9289 742.9289 593.3932 742.4646 593.89828 742.05007 594.4442 741.6853 594.9902 741.3205 595.56649 741.01248 596.1731 740.76119 596.7797 740.5099 597.4051 740.3202 598.0491 740.19216 598.69308 740.064 599.3434 740 600 740Z" fill="#b3b3b3"/>
<path transform="matrix(.7126797,0,0,.7126797,-325.61448,-490.28627)" stroke-width="2" stroke-linecap="butt" stroke-miterlimit="4" stroke-linejoin="miter" fill="none" stroke="#000000" d="M600 740H660C660.65658 740 661.30679 740.064 661.95077 740.19216 662.5947 740.3202 663.22006 740.5099 663.82669 740.76119 664.4333 741.01248 665.0096 741.3205 665.55557 741.6853 666.1015 742.05007 666.6067 742.4646 667.071 742.9289 667.5353 743.3932 667.9498 743.8983 668.31466 744.4442 668.6794 744.9902 668.9874 745.56649 669.2387 746.1731 669.49 746.7797 669.6797 747.405 669.8078 748.0491 669.9359 748.69308 669.99996 749.3433 670 750V760C669.99996 760.65658 669.9359 761.3068 669.8078 761.9508 669.6797 762.5948 669.49 763.2201 669.2387 763.8267 668.9874 764.43338 668.6794 765.00967 668.31466 765.5556 667.9498 766.10159 667.5353 766.6067 667.071 767.071 666.6067 767.5353 666.1015 767.9498 665.55557 768.31466 665.0096 768.67947 664.4333 768.9874 663.82669 769.2387 663.22006 769.49 662.5947 769.6797 661.95077 769.8078 661.30679 769.9359 660.65658 769.99996 660 770H600C599.3434 769.99996 598.69308 769.9359 598.0491 769.8078 597.4051 769.6797 596.7797 769.49 596.1731 769.2387 595.56649 768.9874 594.9902 768.67947 594.4442 768.31466 593.89828 767.9498 593.3932 767.5353 592.9289 767.071 592.4646 766.6067 592.05007 766.10159 591.68527 765.5556 591.32046 765.00967 591.0124 764.43338 590.7611 763.8267 590.5098 763.2201 590.3201 762.5948 590.1921 761.9508 590.064 761.3068 590 760.65658 590 760V750C590 749.3433 590.064 748.693 590.1921 748.049 590.3201 747.405 590.5098 746.7797 590.7611 746.1731 591.0124 745.56649 591.32046 744.9902 591.68527 744.4442 592.05007 743.8983 592.4646 743.3932 592.9289 742.9289 593.3932 742.4646 593.89828 742.05007 594.4442 741.6853 594.9902 741.3205 595.56649 741.01248 596.1731 740.76119 596.7797 740.5099 597.4051 740.3202 598.0491 740.19216 598.69308 740.064 599.3434 740 600 740Z"/>
<use data-text="c" xlink:href="#font_2_70" transform="matrix(8.552156,0,0,-8.552156,105.77945,50.637636)"/>
<use data-text="u" xlink:href="#font_2_88" transform="matrix(8.552156,0,0,-8.552156,110.05554,50.637636)"/>
<use data-text="s" xlink:href="#font_2_86" transform="matrix(8.552156,0,0,-8.552156,114.81052,50.637636)"/>
<use data-text="t" xlink:href="#font_2_87" transform="matrix(8.552156,0,0,-8.552156,119.08661,50.637636)"/>
<use data-text="o" xlink:href="#font_2_82" transform="matrix(8.552156,0,0,-8.552156,121.46411,50.637636)"/>
<use data-text="m" xlink:href="#font_2_80" transform="matrix(8.552156,0,0,-8.552156,126.219089,50.637636)"/>
<use data-text="e" xlink:href="#font_2_72" transform="matrix(8.552156,0,0,-8.552156,133.34302,50.637636)"/>
<use data-text="r" xlink:href="#font_2_85" transform="matrix(8.552156,0,0,-8.552156,138.09803,50.637636)"/>
<path transform="matrix(.7126797,0,0,.7126797,-325.61448,-490.28627)" stroke-width="2" stroke-linecap="butt" stroke-miterlimit="10" stroke-linejoin="miter" fill="none" stroke="#000000" d="M630 740 667.47 723.34"/>
<path transform="matrix(.7126797,0,0,.7126797,-325.61448,-490.28627)" d="M672.96 720.91 667.27 727.81 667.47 723.34 664.02 720.5 672.96 720.91Z"/>
<path transform="matrix(.7126797,0,0,.7126797,-325.61448,-490.28627)" stroke-width="2" stroke-linecap="butt" stroke-miterlimit="10" stroke-linejoin="miter" fill="none" stroke="#000000" d="M672.96 720.91 667.27 727.81 667.47 723.34 664.02 720.5 672.96 720.91Z"/>
<use data-text="#" xlink:href="#font_2_6" transform="matrix(8.552156,0,0,-8.552156,211.7349,32.820619)"/>
<use data-text="i" xlink:href="#font_2_76" transform="matrix(8.552156,0,0,-8.552156,216.4899,32.820619)"/>
<use data-text="s" xlink:href="#font_2_86" transform="matrix(8.552156,0,0,-8.552156,218.38846,32.820619)"/>
<use data-text="a" xlink:href="#font_2_68" transform="matrix(8.552156,0,0,-8.552156,222.66452,32.820619)"/>
</g>
</svg>
